<mxfile host="app.diagrams.net" modified="2021-10-12T02:44:51.365Z" agent="5.0 (Windows NT 10.0; Win64; x64) AppleWebKit/537.36 (KHTML, like Gecko) Chrome/94.0.4606.71 Safari/537.36" etag="A3ZpxZ8UuUvS8yVFp7g7" version="15.5.0" type="github">
  <diagram id="vimqUy9gMAuEClG6Irht" name="Page-1">
    <mxGraphModel dx="1038" dy="547" grid="1" gridSize="10" guides="1" tooltips="1" connect="1" arrows="1" fold="1" page="1" pageScale="1" pageWidth="827" pageHeight="1169" math="0" shadow="0">
      <root>
        <mxCell id="0" />
        <mxCell id="1" parent="0" />
        <mxCell id="Txgg0wdBfGrSQDOX3208-1" value="&lt;font style=&quot;font-size: 16px&quot;&gt;&lt;b&gt;Input Embedding&lt;/b&gt;&lt;/font&gt;" style="rounded=1;whiteSpace=wrap;html=1;fillColor=#ffcccc;strokeColor=#36393d;" vertex="1" parent="1">
          <mxGeometry x="154" y="870" width="90" height="44" as="geometry" />
        </mxCell>
        <mxCell id="Txgg0wdBfGrSQDOX3208-2" value="" style="endArrow=classic;html=1;rounded=0;fontSize=16;edgeStyle=orthogonalEdgeStyle;" edge="1" parent="1">
          <mxGeometry width="50" height="50" relative="1" as="geometry">
            <mxPoint x="200" y="869" as="sourcePoint" />
            <mxPoint x="199.5" y="843" as="targetPoint" />
            <Array as="points">
              <mxPoint x="200" y="856" />
            </Array>
          </mxGeometry>
        </mxCell>
        <mxCell id="Txgg0wdBfGrSQDOX3208-3" value="&lt;b&gt;+&lt;/b&gt;" style="ellipse;whiteSpace=wrap;html=1;aspect=fixed;fontSize=16;" vertex="1" parent="1">
          <mxGeometry x="186" y="810" width="30" height="30" as="geometry" />
        </mxCell>
        <mxCell id="Txgg0wdBfGrSQDOX3208-9" value="&lt;b&gt;Positional Encoding&lt;/b&gt;" style="text;html=1;strokeColor=none;fillColor=none;align=center;verticalAlign=middle;whiteSpace=wrap;rounded=0;fontSize=16;" vertex="1" parent="1">
          <mxGeometry x="85" y="810" width="60" height="30" as="geometry" />
        </mxCell>
        <mxCell id="Txgg0wdBfGrSQDOX3208-10" value="" style="rounded=1;whiteSpace=wrap;html=1;fontSize=16;" vertex="1" parent="1">
          <mxGeometry x="85" y="460" width="220" height="300" as="geometry" />
        </mxCell>
        <mxCell id="Txgg0wdBfGrSQDOX3208-15" style="edgeStyle=orthogonalEdgeStyle;rounded=0;orthogonalLoop=1;jettySize=auto;html=1;fontSize=16;" edge="1" parent="1" source="Txgg0wdBfGrSQDOX3208-11" target="Txgg0wdBfGrSQDOX3208-14">
          <mxGeometry relative="1" as="geometry" />
        </mxCell>
        <mxCell id="Txgg0wdBfGrSQDOX3208-11" value="&lt;b&gt;Multi-Head Attention&lt;/b&gt;" style="rounded=1;whiteSpace=wrap;html=1;fontSize=16;fillColor=#ffcc99;strokeColor=#36393d;" vertex="1" parent="1">
          <mxGeometry x="150" y="670" width="100" height="40" as="geometry" />
        </mxCell>
        <mxCell id="Txgg0wdBfGrSQDOX3208-12" value="&lt;b&gt;Add &amp;amp; Norm&lt;/b&gt;" style="rounded=1;whiteSpace=wrap;html=1;fontSize=16;fillColor=#ffff88;strokeColor=#36393d;" vertex="1" parent="1">
          <mxGeometry x="150" y="490" width="100" height="20" as="geometry" />
        </mxCell>
        <mxCell id="Txgg0wdBfGrSQDOX3208-13" value="&lt;b&gt;Feed Forward&lt;/b&gt;" style="rounded=1;whiteSpace=wrap;html=1;fontSize=16;fillColor=#dae8fc;strokeColor=#6c8ebf;" vertex="1" parent="1">
          <mxGeometry x="150" y="530" width="100" height="40" as="geometry" />
        </mxCell>
        <mxCell id="Txgg0wdBfGrSQDOX3208-14" value="&lt;b&gt;Add &amp;amp; Norm&lt;/b&gt;" style="rounded=1;whiteSpace=wrap;html=1;fontSize=16;fillColor=#ffff88;strokeColor=#36393d;" vertex="1" parent="1">
          <mxGeometry x="150" y="630" width="100" height="20" as="geometry" />
        </mxCell>
        <mxCell id="Txgg0wdBfGrSQDOX3208-16" value="" style="endArrow=classic;html=1;rounded=0;fontSize=16;edgeStyle=orthogonalEdgeStyle;exitX=0.5;exitY=0;exitDx=0;exitDy=0;" edge="1" parent="1">
          <mxGeometry width="50" height="50" relative="1" as="geometry">
            <mxPoint x="201" y="810" as="sourcePoint" />
            <mxPoint x="200.5" y="710" as="targetPoint" />
            <Array as="points">
              <mxPoint x="201" y="760" />
            </Array>
          </mxGeometry>
        </mxCell>
        <mxCell id="Txgg0wdBfGrSQDOX3208-18" value="" style="endArrow=classic;startArrow=classic;html=1;rounded=0;fontSize=16;edgeStyle=orthogonalEdgeStyle;" edge="1" parent="1">
          <mxGeometry width="50" height="50" relative="1" as="geometry">
            <mxPoint x="170" y="709" as="sourcePoint" />
            <mxPoint x="230" y="709" as="targetPoint" />
            <Array as="points">
              <mxPoint x="170" y="729" />
              <mxPoint x="230" y="729" />
            </Array>
          </mxGeometry>
        </mxCell>
        <mxCell id="Txgg0wdBfGrSQDOX3208-19" value="" style="endArrow=classic;html=1;rounded=0;fontSize=16;edgeStyle=orthogonalEdgeStyle;" edge="1" parent="1">
          <mxGeometry width="50" height="50" relative="1" as="geometry">
            <mxPoint x="200" y="746" as="sourcePoint" />
            <mxPoint x="149" y="640" as="targetPoint" />
            <Array as="points">
              <mxPoint x="109" y="746" />
              <mxPoint x="109" y="640" />
              <mxPoint x="149" y="640" />
            </Array>
          </mxGeometry>
        </mxCell>
        <mxCell id="Txgg0wdBfGrSQDOX3208-20" value="" style="endArrow=classic;html=1;rounded=0;fontSize=16;edgeStyle=orthogonalEdgeStyle;" edge="1" parent="1">
          <mxGeometry width="50" height="50" relative="1" as="geometry">
            <mxPoint x="200" y="630" as="sourcePoint" />
            <mxPoint x="200" y="570" as="targetPoint" />
            <Array as="points">
              <mxPoint x="200" y="630" />
            </Array>
          </mxGeometry>
        </mxCell>
        <mxCell id="Txgg0wdBfGrSQDOX3208-21" style="edgeStyle=orthogonalEdgeStyle;rounded=0;orthogonalLoop=1;jettySize=auto;html=1;fontSize=16;" edge="1" parent="1">
          <mxGeometry relative="1" as="geometry">
            <mxPoint x="198" y="530" as="sourcePoint" />
            <mxPoint x="198" y="510" as="targetPoint" />
          </mxGeometry>
        </mxCell>
        <mxCell id="Txgg0wdBfGrSQDOX3208-22" value="" style="endArrow=classic;html=1;rounded=0;fontSize=16;edgeStyle=orthogonalEdgeStyle;" edge="1" parent="1">
          <mxGeometry width="50" height="50" relative="1" as="geometry">
            <mxPoint x="200" y="600" as="sourcePoint" />
            <mxPoint x="149" y="502" as="targetPoint" />
            <Array as="points">
              <mxPoint x="163" y="600" />
              <mxPoint x="111" y="600" />
              <mxPoint x="111" y="502" />
            </Array>
          </mxGeometry>
        </mxCell>
        <mxCell id="Txgg0wdBfGrSQDOX3208-24" value="" style="endArrow=classic;html=1;rounded=0;fontSize=16;edgeStyle=orthogonalEdgeStyle;" edge="1" parent="1">
          <mxGeometry width="50" height="50" relative="1" as="geometry">
            <mxPoint x="200" y="941" as="sourcePoint" />
            <mxPoint x="199.5" y="915" as="targetPoint" />
            <Array as="points">
              <mxPoint x="200" y="928" />
            </Array>
          </mxGeometry>
        </mxCell>
        <mxCell id="Txgg0wdBfGrSQDOX3208-25" value="&lt;b&gt;Inputs&lt;/b&gt;" style="text;html=1;strokeColor=none;fillColor=none;align=center;verticalAlign=middle;whiteSpace=wrap;rounded=0;fontSize=16;" vertex="1" parent="1">
          <mxGeometry x="171" y="940" width="60" height="30" as="geometry" />
        </mxCell>
        <mxCell id="Txgg0wdBfGrSQDOX3208-27" value="&lt;font style=&quot;font-size: 16px&quot;&gt;&lt;b&gt;Output Embedding&lt;/b&gt;&lt;/font&gt;" style="rounded=1;whiteSpace=wrap;html=1;fillColor=#ffcccc;strokeColor=#36393d;" vertex="1" parent="1">
          <mxGeometry x="421" y="870" width="90" height="44" as="geometry" />
        </mxCell>
        <mxCell id="Txgg0wdBfGrSQDOX3208-28" value="" style="endArrow=classic;html=1;rounded=0;fontSize=16;edgeStyle=orthogonalEdgeStyle;" edge="1" parent="1">
          <mxGeometry width="50" height="50" relative="1" as="geometry">
            <mxPoint x="467" y="869" as="sourcePoint" />
            <mxPoint x="466.5" y="843" as="targetPoint" />
            <Array as="points">
              <mxPoint x="467" y="856" />
            </Array>
          </mxGeometry>
        </mxCell>
        <mxCell id="Txgg0wdBfGrSQDOX3208-29" value="&lt;b&gt;+&lt;/b&gt;" style="ellipse;whiteSpace=wrap;html=1;aspect=fixed;fontSize=16;" vertex="1" parent="1">
          <mxGeometry x="453" y="810" width="30" height="30" as="geometry" />
        </mxCell>
        <mxCell id="Txgg0wdBfGrSQDOX3208-30" value="&lt;b&gt;Positional Encoding&lt;/b&gt;" style="text;html=1;strokeColor=none;fillColor=none;align=center;verticalAlign=middle;whiteSpace=wrap;rounded=0;fontSize=16;" vertex="1" parent="1">
          <mxGeometry x="517" y="810" width="60" height="30" as="geometry" />
        </mxCell>
        <mxCell id="Txgg0wdBfGrSQDOX3208-31" value="" style="rounded=1;whiteSpace=wrap;html=1;fontSize=16;" vertex="1" parent="1">
          <mxGeometry x="352" y="330" width="258" height="430" as="geometry" />
        </mxCell>
        <mxCell id="Txgg0wdBfGrSQDOX3208-32" style="edgeStyle=orthogonalEdgeStyle;rounded=0;orthogonalLoop=1;jettySize=auto;html=1;fontSize=16;" edge="1" parent="1" source="Txgg0wdBfGrSQDOX3208-33" target="Txgg0wdBfGrSQDOX3208-36">
          <mxGeometry relative="1" as="geometry" />
        </mxCell>
        <mxCell id="Txgg0wdBfGrSQDOX3208-33" value="&lt;b&gt;Multi-Head Attention&lt;/b&gt;" style="rounded=1;whiteSpace=wrap;html=1;fontSize=16;fillColor=#ffcc99;strokeColor=#36393d;" vertex="1" parent="1">
          <mxGeometry x="417" y="526" width="100" height="40" as="geometry" />
        </mxCell>
        <mxCell id="Txgg0wdBfGrSQDOX3208-34" value="&lt;b&gt;Add &amp;amp; Norm&lt;/b&gt;" style="rounded=1;whiteSpace=wrap;html=1;fontSize=16;fillColor=#ffff88;strokeColor=#36393d;" vertex="1" parent="1">
          <mxGeometry x="417" y="346" width="100" height="20" as="geometry" />
        </mxCell>
        <mxCell id="Txgg0wdBfGrSQDOX3208-35" value="&lt;b&gt;Feed Forward&lt;/b&gt;" style="rounded=1;whiteSpace=wrap;html=1;fontSize=16;fillColor=#dae8fc;strokeColor=#6c8ebf;" vertex="1" parent="1">
          <mxGeometry x="417" y="386" width="100" height="40" as="geometry" />
        </mxCell>
        <mxCell id="Txgg0wdBfGrSQDOX3208-36" value="&lt;b&gt;Add &amp;amp; Norm&lt;/b&gt;" style="rounded=1;whiteSpace=wrap;html=1;fontSize=16;fillColor=#ffff88;strokeColor=#36393d;" vertex="1" parent="1">
          <mxGeometry x="417" y="486" width="100" height="20" as="geometry" />
        </mxCell>
        <mxCell id="Txgg0wdBfGrSQDOX3208-37" value="" style="endArrow=classic;html=1;rounded=0;fontSize=16;edgeStyle=orthogonalEdgeStyle;exitX=0.5;exitY=0;exitDx=0;exitDy=0;" edge="1" parent="1">
          <mxGeometry width="50" height="50" relative="1" as="geometry">
            <mxPoint x="468" y="810" as="sourcePoint" />
            <mxPoint x="467.5" y="710" as="targetPoint" />
            <Array as="points">
              <mxPoint x="468" y="760" />
            </Array>
          </mxGeometry>
        </mxCell>
        <mxCell id="Txgg0wdBfGrSQDOX3208-38" value="" style="endArrow=classic;startArrow=classic;html=1;rounded=0;fontSize=16;edgeStyle=orthogonalEdgeStyle;" edge="1" parent="1">
          <mxGeometry width="50" height="50" relative="1" as="geometry">
            <mxPoint x="437" y="709" as="sourcePoint" />
            <mxPoint x="497" y="709" as="targetPoint" />
            <Array as="points">
              <mxPoint x="437" y="729" />
              <mxPoint x="497" y="729" />
            </Array>
          </mxGeometry>
        </mxCell>
        <mxCell id="Txgg0wdBfGrSQDOX3208-39" value="" style="endArrow=classic;html=1;rounded=0;fontSize=16;edgeStyle=orthogonalEdgeStyle;" edge="1" parent="1">
          <mxGeometry width="50" height="50" relative="1" as="geometry">
            <mxPoint x="467" y="748" as="sourcePoint" />
            <mxPoint x="520" y="612" as="targetPoint" />
            <Array as="points">
              <mxPoint x="556" y="748" />
              <mxPoint x="556" y="612" />
              <mxPoint x="526" y="612" />
            </Array>
          </mxGeometry>
        </mxCell>
        <mxCell id="Txgg0wdBfGrSQDOX3208-40" value="" style="endArrow=classic;html=1;rounded=0;fontSize=16;edgeStyle=orthogonalEdgeStyle;" edge="1" parent="1">
          <mxGeometry width="50" height="50" relative="1" as="geometry">
            <mxPoint x="467" y="486" as="sourcePoint" />
            <mxPoint x="467" y="426" as="targetPoint" />
            <Array as="points">
              <mxPoint x="467" y="486" />
            </Array>
          </mxGeometry>
        </mxCell>
        <mxCell id="Txgg0wdBfGrSQDOX3208-41" style="edgeStyle=orthogonalEdgeStyle;rounded=0;orthogonalLoop=1;jettySize=auto;html=1;fontSize=16;" edge="1" parent="1">
          <mxGeometry relative="1" as="geometry">
            <mxPoint x="466" y="386" as="sourcePoint" />
            <mxPoint x="466" y="366" as="targetPoint" />
          </mxGeometry>
        </mxCell>
        <mxCell id="Txgg0wdBfGrSQDOX3208-42" value="" style="endArrow=classic;html=1;rounded=0;fontSize=16;edgeStyle=orthogonalEdgeStyle;" edge="1" parent="1">
          <mxGeometry width="50" height="50" relative="1" as="geometry">
            <mxPoint x="467" y="456" as="sourcePoint" />
            <mxPoint x="520" y="358" as="targetPoint" />
            <Array as="points">
              <mxPoint x="570" y="456" />
              <mxPoint x="570" y="358" />
            </Array>
          </mxGeometry>
        </mxCell>
        <mxCell id="Txgg0wdBfGrSQDOX3208-43" value="" style="endArrow=classic;html=1;rounded=0;fontSize=16;edgeStyle=orthogonalEdgeStyle;" edge="1" parent="1">
          <mxGeometry width="50" height="50" relative="1" as="geometry">
            <mxPoint x="467" y="941" as="sourcePoint" />
            <mxPoint x="466.5" y="915" as="targetPoint" />
            <Array as="points">
              <mxPoint x="467" y="928" />
            </Array>
          </mxGeometry>
        </mxCell>
        <mxCell id="Txgg0wdBfGrSQDOX3208-44" value="&lt;b&gt;Outputs&lt;/b&gt;" style="text;html=1;strokeColor=none;fillColor=none;align=center;verticalAlign=middle;whiteSpace=wrap;rounded=0;fontSize=16;" vertex="1" parent="1">
          <mxGeometry x="438" y="940" width="60" height="30" as="geometry" />
        </mxCell>
        <mxCell id="Txgg0wdBfGrSQDOX3208-45" value="&lt;b&gt;Masked Multi-Head Attention&lt;/b&gt;" style="rounded=1;whiteSpace=wrap;html=1;fontSize=16;fillColor=#ffcc99;strokeColor=#36393d;" vertex="1" parent="1">
          <mxGeometry x="417" y="643" width="103" height="67" as="geometry" />
        </mxCell>
        <mxCell id="Txgg0wdBfGrSQDOX3208-46" value="&lt;b&gt;Add &amp;amp; Norm&lt;/b&gt;" style="rounded=1;whiteSpace=wrap;html=1;fontSize=16;fillColor=#ffff88;strokeColor=#36393d;" vertex="1" parent="1">
          <mxGeometry x="417" y="603" width="100" height="20" as="geometry" />
        </mxCell>
        <mxCell id="Txgg0wdBfGrSQDOX3208-47" style="edgeStyle=orthogonalEdgeStyle;rounded=0;orthogonalLoop=1;jettySize=auto;html=1;fontSize=16;" edge="1" parent="1">
          <mxGeometry relative="1" as="geometry">
            <mxPoint x="469" y="642" as="sourcePoint" />
            <mxPoint x="469" y="622" as="targetPoint" />
          </mxGeometry>
        </mxCell>
        <mxCell id="Txgg0wdBfGrSQDOX3208-48" value="" style="endArrow=classic;html=1;rounded=0;fontSize=16;edgeStyle=orthogonalEdgeStyle;" edge="1" parent="1">
          <mxGeometry width="50" height="50" relative="1" as="geometry">
            <mxPoint x="200" y="490" as="sourcePoint" />
            <mxPoint x="470" y="587" as="targetPoint" />
            <Array as="points">
              <mxPoint x="200" y="437" />
              <mxPoint x="330" y="437" />
              <mxPoint x="330" y="587" />
            </Array>
          </mxGeometry>
        </mxCell>
        <mxCell id="Txgg0wdBfGrSQDOX3208-49" style="edgeStyle=orthogonalEdgeStyle;rounded=0;orthogonalLoop=1;jettySize=auto;html=1;fontSize=16;" edge="1" parent="1">
          <mxGeometry relative="1" as="geometry">
            <mxPoint x="469" y="583" as="sourcePoint" />
            <mxPoint x="469" y="568" as="targetPoint" />
            <Array as="points">
              <mxPoint x="469" y="603" />
              <mxPoint x="469" y="603" />
            </Array>
          </mxGeometry>
        </mxCell>
        <mxCell id="Txgg0wdBfGrSQDOX3208-51" value="" style="endArrow=classic;html=1;rounded=0;fontSize=16;edgeStyle=orthogonalEdgeStyle;" edge="1" parent="1">
          <mxGeometry width="50" height="50" relative="1" as="geometry">
            <mxPoint x="469" y="595" as="sourcePoint" />
            <mxPoint x="520" y="497" as="targetPoint" />
            <Array as="points">
              <mxPoint x="572" y="595" />
              <mxPoint x="572" y="497" />
            </Array>
          </mxGeometry>
        </mxCell>
        <mxCell id="Txgg0wdBfGrSQDOX3208-52" style="edgeStyle=orthogonalEdgeStyle;rounded=0;orthogonalLoop=1;jettySize=auto;html=1;fontSize=16;" edge="1" parent="1">
          <mxGeometry relative="1" as="geometry">
            <mxPoint x="466" y="325" as="sourcePoint" />
            <mxPoint x="466" y="310" as="targetPoint" />
            <Array as="points">
              <mxPoint x="466" y="345" />
              <mxPoint x="466" y="345" />
            </Array>
          </mxGeometry>
        </mxCell>
        <mxCell id="Txgg0wdBfGrSQDOX3208-53" style="edgeStyle=orthogonalEdgeStyle;rounded=0;orthogonalLoop=1;jettySize=auto;html=1;fontSize=16;" edge="1" parent="1">
          <mxGeometry relative="1" as="geometry">
            <mxPoint x="466" y="271" as="sourcePoint" />
            <mxPoint x="466" y="271" as="targetPoint" />
            <Array as="points">
              <mxPoint x="466" y="291" />
              <mxPoint x="466" y="291" />
            </Array>
          </mxGeometry>
        </mxCell>
        <mxCell id="Txgg0wdBfGrSQDOX3208-54" value="&lt;b&gt;Linear&lt;/b&gt;" style="rounded=1;whiteSpace=wrap;html=1;fontSize=16;fillColor=#eeeeee;strokeColor=#36393d;" vertex="1" parent="1">
          <mxGeometry x="417" y="290" width="100" height="20" as="geometry" />
        </mxCell>
        <mxCell id="Txgg0wdBfGrSQDOX3208-55" style="edgeStyle=orthogonalEdgeStyle;rounded=0;orthogonalLoop=1;jettySize=auto;html=1;fontSize=16;" edge="1" parent="1">
          <mxGeometry relative="1" as="geometry">
            <mxPoint x="466" y="229" as="sourcePoint" />
            <mxPoint x="466" y="229" as="targetPoint" />
            <Array as="points">
              <mxPoint x="466" y="249" />
              <mxPoint x="466" y="249" />
            </Array>
          </mxGeometry>
        </mxCell>
        <mxCell id="Txgg0wdBfGrSQDOX3208-56" value="&lt;b&gt;Softmax&lt;/b&gt;" style="rounded=1;whiteSpace=wrap;html=1;fontSize=16;fillColor=#cdeb8b;strokeColor=#36393d;" vertex="1" parent="1">
          <mxGeometry x="418.5" y="249" width="100" height="20" as="geometry" />
        </mxCell>
        <mxCell id="Txgg0wdBfGrSQDOX3208-57" value="&lt;b&gt;Output Probabilities&lt;/b&gt;" style="text;html=1;strokeColor=none;fillColor=none;align=center;verticalAlign=middle;whiteSpace=wrap;rounded=0;fontSize=16;" vertex="1" parent="1">
          <mxGeometry x="434" y="190" width="60" height="30" as="geometry" />
        </mxCell>
        <mxCell id="Txgg0wdBfGrSQDOX3208-58" value="&lt;b&gt;N x&lt;/b&gt;" style="text;html=1;strokeColor=none;fillColor=none;align=center;verticalAlign=middle;whiteSpace=wrap;rounded=0;fontSize=16;" vertex="1" parent="1">
          <mxGeometry x="25" y="585" width="60" height="30" as="geometry" />
        </mxCell>
        <mxCell id="Txgg0wdBfGrSQDOX3208-59" value="&lt;b&gt;N x&lt;/b&gt;" style="text;html=1;strokeColor=none;fillColor=none;align=center;verticalAlign=middle;whiteSpace=wrap;rounded=0;fontSize=16;" vertex="1" parent="1">
          <mxGeometry x="630" y="526" width="60" height="30" as="geometry" />
        </mxCell>
      </root>
    </mxGraphModel>
  </diagram>
</mxfile>
